<svg width="42" height="42" viewBox="0 0 42 42" fill="none" xmlns="http://www.w3.org/2000/svg">
<path d="M20.9064 41.7741C13.0568 41.7741 5.98438 37.4412 2.37044 30.4659C2.31215 30.4077 2.27327 30.3299 2.23441 30.2522C0.757743 27.2989 0 24.1513 0 20.887C0 17.6228 0.757743 14.4752 2.23441 11.5219C5.80949 4.41055 12.9597 0 20.887 0C26.2108 0 31.0488 1.88467 34.8765 5.44033C35.1679 5.71234 35.3428 6.08153 35.3428 6.48956C35.3428 6.89758 35.1873 7.26677 34.8959 7.55821L29.4167 12.9208C28.8532 13.4648 27.9789 13.4843 27.396 12.9403C26.1719 11.7939 24.054 10.4338 20.887 10.4338C16.8844 10.4338 13.2123 12.8431 11.5607 16.5931C11.4247 16.904 11.3081 17.1954 11.1916 17.5257C10.8224 18.6526 10.6475 19.799 10.6475 20.9065C10.6475 22.014 10.8418 23.1215 11.1916 24.229C11.1916 24.2484 11.211 24.2678 11.211 24.3067C12.6099 28.5424 16.4959 31.3791 20.887 31.3791C23.1991 31.3791 25.181 30.8157 26.7937 29.6887C28.2703 28.659 29.2029 27.2795 29.7081 26.0359H20.9064C20.1098 26.0359 19.4492 25.3753 19.4492 24.5787V17.3702C19.4492 16.5736 20.1098 15.913 20.9064 15.913H39.151C39.8311 15.913 40.4139 16.3793 40.5694 17.0399C40.8803 18.4 41.0163 19.6824 41.0163 21.3339C41.0163 27.5126 38.8013 32.9724 34.7599 36.7029C31.1654 40.006 26.3662 41.7741 20.9064 41.7741ZM4.74085 28.7561C4.79914 28.8338 4.85745 28.931 4.89631 29.0281C7.94679 35.0708 14.0866 38.8596 20.9064 38.8596C25.6279 38.8596 29.7276 37.3635 32.778 34.5462C36.2171 31.3791 38.1018 26.6771 38.1018 21.3145C38.1018 20.343 38.0629 19.5658 37.9464 18.8081H22.3637V23.102H31.6122C32.0203 23.102 32.4283 23.2769 32.7003 23.5878C32.9723 23.8987 33.1083 24.3261 33.05 24.7341C32.7975 26.9103 31.4374 29.9802 28.4646 32.0592C26.3662 33.5164 23.8209 34.2742 20.887 34.2742C15.2718 34.2742 10.2978 30.6602 8.4714 25.2588C8.4714 25.2393 8.45197 25.2199 8.45197 25.2005C7.96622 23.7821 7.73306 22.3443 7.73306 20.9065C7.73306 19.4881 7.96622 18.0503 8.43254 16.6125C8.56855 16.185 8.72397 15.7964 8.89883 15.4078C11.0361 10.6087 15.7381 7.51934 20.887 7.51934C24.2095 7.51934 26.6576 8.68514 28.3286 9.90922L31.7288 6.58672C28.6589 4.17743 24.9284 2.91447 20.887 2.91447C14.0672 2.91447 7.90793 6.7033 4.83802 12.8237C3.57508 15.369 2.91447 18.0892 2.91447 20.887C2.9339 23.6266 3.53621 26.2691 4.74085 28.7561Z" fill="black"/>
</svg>
