<svg width="42" height="42" viewBox="0 0 42 42" fill="none" xmlns="http://www.w3.org/2000/svg">
<path d="M36.6217 41.0163H4.3946C1.9675 41.0163 0 39.0488 0 36.6217V4.3946C0 1.96759 1.96741 9.15542e-05 4.3946 0H36.6217C39.0489 9.15542e-05 41.0163 1.96759 41.0163 4.3946V36.6217C41.0163 39.0488 39.0489 41.0162 36.6217 41.0163ZM27.857 8.87288C25.6063 7.84052 23.1567 7.32433 20.5081 7.32433C17.8596 7.32433 15.4099 7.84052 13.1593 8.87288C10.9086 9.90525 9.12923 11.309 7.82138 13.0843C6.51344 14.8595 5.85947 16.7959 5.85947 18.8934C5.85947 20.9253 6.47801 22.8071 7.71509 24.5386C8.95217 26.2702 10.6225 27.6603 12.726 28.709C11.7996 31.8335 11.3036 33.6087 11.2383 34.0347V34.1003C11.2383 34.1439 11.2492 34.1931 11.271 34.2478C11.2927 34.3024 11.3254 34.3461 11.3691 34.3789C11.4781 34.4334 11.5925 34.4389 11.7124 34.3953C11.9631 34.3625 14.0285 32.9969 17.9086 30.2986C18.8024 30.4187 19.6689 30.4788 20.5081 30.4788C23.1676 30.4788 25.6199 29.9627 27.8652 28.9303C30.1104 27.8979 31.887 26.4914 33.1949 24.7107C34.5028 22.93 35.1568 20.9909 35.1568 18.8934C35.1568 16.7959 34.5028 14.8595 33.1949 13.0843C31.887 11.309 30.1077 9.90525 27.857 8.87288ZM31.2821 22.1789C31.2821 21.955 31.2113 21.7556 31.0695 21.5808C31.0042 21.4825 30.3175 20.5594 29.0096 18.8115C29.6418 18.1669 30.2793 17.5224 30.9224 16.8778C31.0859 16.7139 31.1867 16.52 31.2249 16.2961C31.263 16.0722 31.2004 15.8619 31.0369 15.6652C30.8516 15.4904 30.6527 15.4194 30.4401 15.4521C30.2276 15.4849 30.0287 15.5941 29.8434 15.7799C29.8107 15.8127 29.669 15.9574 29.4183 16.2142C29.1676 16.4709 28.8434 16.8013 28.4455 17.2055C28.0477 17.6097 27.6962 17.9703 27.3911 18.287V16.3862C27.3911 16.1567 27.323 15.9438 27.1866 15.7471C27.0504 15.5505 26.8625 15.4521 26.6227 15.4521C26.3829 15.4521 26.1976 15.5396 26.0668 15.7144C25.936 15.8891 25.8706 16.1131 25.8706 16.3862V21.9577C25.8706 22.2308 25.936 22.4548 26.0668 22.6295C26.1976 22.8043 26.3829 22.8917 26.6227 22.8917C26.8625 22.8917 27.0504 22.7934 27.1866 22.5968C27.323 22.4001 27.3911 22.1871 27.3911 21.9577V20.4665C27.4347 20.4228 27.5164 20.3381 27.6363 20.2125C27.7562 20.0869 27.8543 19.9858 27.9305 19.9094C28.65 20.8926 29.2929 21.7611 29.8598 22.5148C30.0124 22.7224 30.1894 22.8562 30.391 22.9163C30.5927 22.9764 30.7971 22.93 31.0042 22.777C31.1895 22.6023 31.2821 22.4028 31.2821 22.1789ZM15.9795 21.4169H18.8242C18.9441 21.8102 19.0313 22.0669 19.0857 22.1871C19.1403 22.2964 19.2002 22.4056 19.2657 22.5148C19.331 22.6241 19.4509 22.7306 19.6253 22.8343C19.7997 22.9382 19.9795 22.9573 20.1648 22.8917C20.5681 22.7388 20.6934 22.3509 20.5408 21.7283C20.4972 21.5863 20.1893 20.7369 19.6171 19.1801C19.0449 17.6234 18.7152 16.7358 18.628 16.5173C18.3337 15.8072 17.9304 15.4521 17.4182 15.4521C16.8624 15.4521 16.4318 15.8072 16.1266 16.5173C16.0394 16.7031 15.707 17.6071 15.1293 19.2293C14.5516 20.8516 14.252 21.6846 14.2302 21.7283C14.1538 21.8266 14.1348 22.0069 14.173 22.2691C14.211 22.5312 14.3282 22.7115 14.5244 22.8098C14.7424 22.9081 14.9549 22.919 15.162 22.8426C15.3691 22.7661 15.5108 22.6514 15.5871 22.4984L15.9795 21.4169ZM24.5627 22.8917H22.2084C22.1975 22.8917 22.1784 22.889 22.1512 22.8835C22.124 22.8781 22.1048 22.8754 22.0939 22.8754C22.083 22.8754 22.064 22.8781 22.0367 22.8835C22.0095 22.889 21.9904 22.8917 21.9795 22.8917C21.7397 22.8917 21.5545 22.8043 21.4237 22.6295C21.2928 22.4548 21.2275 22.2308 21.2275 21.9577V16.3862C21.2275 16.1131 21.2928 15.8891 21.4237 15.7144C21.5545 15.5396 21.7397 15.4521 21.9795 15.4521C22.2193 15.4521 22.4073 15.5505 22.5436 15.7471C22.6798 15.9438 22.7479 16.1567 22.7479 16.3862V21.335H24.5627C24.8243 21.335 25.0423 21.4033 25.2167 21.5399C25.391 21.6764 25.4782 21.8649 25.4782 22.1052C25.4782 22.3455 25.3828 22.5367 25.1921 22.6787C25.0013 22.8207 24.7917 22.8917 24.5627 22.8917ZM13.0857 16.927V21.9577C13.0857 22.1871 13.0176 22.4001 12.8813 22.5968C12.7451 22.7934 12.5571 22.8917 12.3173 22.8917C12.0776 22.8917 11.8922 22.8043 11.7614 22.6295C11.6307 22.4548 11.5652 22.2308 11.5652 21.9577V16.927H10.2737C10.0557 16.927 9.85947 16.8614 9.68515 16.7303C9.51074 16.5992 9.42358 16.4081 9.42358 16.1567C9.42358 15.9055 9.50525 15.7253 9.66876 15.616C9.83228 15.5068 10.0067 15.4521 10.1919 15.4521H14.4427C14.6062 15.4521 14.7751 15.5259 14.9495 15.6733C15.1238 15.8208 15.2111 16.0039 15.2111 16.2223C15.2111 16.4408 15.1157 16.6129 14.925 16.7385C14.7343 16.8642 14.5517 16.927 14.3773 16.927H13.0857ZM17.4182 17.0089L16.4209 19.9421H18.3991L17.4182 17.0089Z" fill="black"/>
</svg>
