<svg width="42" height="42" viewBox="0 0 42 42" fill="none" xmlns="http://www.w3.org/2000/svg">
<path d="M1.46487 0C1.08339 0 0.743878 0.144958 0.446327 0.434882C0.148776 0.724807 0 1.06814 0 1.46487V39.5514C0 39.9481 0.148776 40.2914 0.446327 40.5814C0.743878 40.8713 1.08339 41.0163 1.46487 41.0163H39.5514C39.9329 41.0163 40.2724 40.8713 40.5699 40.5814C40.8675 40.2914 41.0163 39.9481 41.0163 39.5514V1.46487C41.0163 1.06814 40.8675 0.724807 40.5699 0.434882C40.2724 0.144958 39.9329 0 39.5514 0H1.46487ZM9.17831 10.2541H17.0749L23.9414 20.5081V10.2541H31.838V30.7622H23.9414L17.0749 20.5081V30.7622H9.17831V10.2541Z" fill="black"/>
</svg>
