<svg width="33" height="42" viewBox="0 0 33 42" fill="none" xmlns="http://www.w3.org/2000/svg">
<path d="M1.2515 0C0.526946 0 0 0.419476 0 0.996255V41.0037C0 41.5805 0.526946 42 1.2515 42H31.7485C32.4731 42 33 41.5805 33 41.0037V0.996255C33 0.419476 32.4731 0 31.7485 0L1.2515 0ZM6.58683 5.24345H26.3473V31.4607H6.58683V5.24345ZM16.4671 34.0824C18.3114 34.0824 19.7605 35.236 19.7605 36.7041C19.7605 38.1723 18.3114 39.3258 16.4671 39.3258C14.6228 39.3258 13.1737 38.1723 13.1737 36.7041C13.1737 35.236 14.6228 34.0824 16.4671 34.0824Z" fill="#BBBBBB"/>
</svg>
