<svg width="25" height="25" viewBox="0 0 25 25" fill="none" xmlns="http://www.w3.org/2000/svg">
<mask id="mask0_257_562" style="mask-type:alpha" maskUnits="userSpaceOnUse" x="0" y="0" width="25" height="25">
<rect x="0.77832" y="0.667236" width="24" height="24" fill="#D9D9D9"/>
</mask>
<g mask="url(#mask0_257_562)">
<path d="M11.3783 17.2672L18.4283 10.2172L17.0283 8.81724L11.3783 14.4672L8.52832 11.6172L7.12832 13.0172L11.3783 17.2672ZM12.7783 22.6672C11.395 22.6672 10.095 22.4047 8.87832 21.8797C7.66165 21.3547 6.60332 20.6422 5.70332 19.7422C4.80332 18.8422 4.09082 17.7839 3.56582 16.5672C3.04082 15.3506 2.77832 14.0506 2.77832 12.6672C2.77832 11.2839 3.04082 9.9839 3.56582 8.76724C4.09082 7.55057 4.80332 6.49224 5.70332 5.59224C6.60332 4.69224 7.66165 3.97974 8.87832 3.45474C10.095 2.92974 11.395 2.66724 12.7783 2.66724C14.1617 2.66724 15.4617 2.92974 16.6783 3.45474C17.895 3.97974 18.9533 4.69224 19.8533 5.59224C20.7533 6.49224 21.4658 7.55057 21.9908 8.76724C22.5158 9.9839 22.7783 11.2839 22.7783 12.6672C22.7783 14.0506 22.5158 15.3506 21.9908 16.5672C21.4658 17.7839 20.7533 18.8422 19.8533 19.7422C18.9533 20.6422 17.895 21.3547 16.6783 21.8797C15.4617 22.4047 14.1617 22.6672 12.7783 22.6672ZM12.7783 20.6672C15.0117 20.6672 16.9033 19.8922 18.4533 18.3422C20.0033 16.7922 20.7783 14.9006 20.7783 12.6672C20.7783 10.4339 20.0033 8.54224 18.4533 6.99224C16.9033 5.44224 15.0117 4.66724 12.7783 4.66724C10.545 4.66724 8.65332 5.44224 7.10332 6.99224C5.55332 8.54224 4.77832 10.4339 4.77832 12.6672C4.77832 14.9006 5.55332 16.7922 7.10332 18.3422C8.65332 19.8922 10.545 20.6672 12.7783 20.6672Z" fill="#1C1B1F"/>
</g>
</svg>
