<svg width="15" height="24" viewBox="0 0 15 24" fill="none" xmlns="http://www.w3.org/2000/svg">
<path d="M11.25 0C9.1875 0 7.5 1.35 7.5 3C7.5 4.65 9.1875 6 11.25 6C13.3125 6 15 4.65 15 3C15 1.35 13.3125 0 11.25 0ZM5.625 7.5C2.5125 7.5 0 9.51 0 12H3.75C3.75 11.16 4.575 10.5 5.625 10.5C6.675 10.5 7.5 11.16 7.5 12C7.5 12.84 3.75 16.92 3.75 19.5C3.75 22.08 6.2625 24 9.375 24C12.4875 24 15 21.99 15 19.5H11.25C11.25 20.34 10.425 21 9.375 21C8.325 21 7.5 20.34 7.5 19.5C7.5 18.42 11.25 13.98 11.25 12C11.25 9.57 8.7375 7.5 5.625 7.5Z" fill="#BBBBBB"/>
</svg>
