<svg width="130" height="137" viewBox="0 0 130 137" fill="none" xmlns="http://www.w3.org/2000/svg">
<mask id="mask0_105_464" style="mask-type:luminance" maskUnits="userSpaceOnUse" x="0" y="0" width="130" height="114">
<path d="M130 0H0V113.71H130V0Z" fill="white"/>
</mask>
<g mask="url(#mask0_105_464)">
<path d="M64.9997 132.433C98.505 132.433 125.666 103.809 125.666 68.5C125.666 33.1906 98.505 4.56667 64.9997 4.56667C31.4944 4.56667 4.33301 33.1906 4.33301 68.5C4.33301 103.809 31.4944 132.433 64.9997 132.433Z" fill="black"/>
</g>
<path d="M64.9997 78.775C78.7608 78.775 89.9163 67.0187 89.9163 52.5167C89.9163 38.0146 78.7608 26.2583 64.9997 26.2583C51.2386 26.2583 40.083 38.0146 40.083 52.5167C40.083 67.0187 51.2386 78.775 64.9997 78.775Z" fill="white"/>
<mask id="mask1_105_464" style="mask-type:luminance" maskUnits="userSpaceOnUse" x="4" y="4" width="122" height="129">
<path d="M64.9997 132.433C98.505 132.433 125.666 103.809 125.666 68.5C125.666 33.1906 98.505 4.56667 64.9997 4.56667C31.4944 4.56667 4.33301 33.1906 4.33301 68.5C4.33301 103.809 31.4944 132.433 64.9997 132.433Z" fill="white"/>
</mask>
<g mask="url(#mask1_105_464)">
<path d="M64.9997 172.392C89.5303 172.392 109.416 151.435 109.416 125.583C109.416 99.7318 89.5303 78.775 64.9997 78.775C40.469 78.775 20.583 99.7318 20.583 125.583C20.583 151.435 40.469 172.392 64.9997 172.392Z" fill="white"/>
</g>
</svg>
